<svg width="258" height="388" xmlns="http://www.w3.org/2000/svg" xmlns:xlink="http://www.w3.org/1999/xlink" overflow="hidden"><defs><clipPath id="clip0"><rect x="400" y="104" width="258" height="388"/></clipPath><linearGradient x1="498.012" y1="304.638" x2="454.742" y2="291.286" gradientUnits="userSpaceOnUse" spreadMethod="reflect" id="fill1"><stop offset="0" stop-color="#CE93D8"/><stop offset="0.74" stop-color="#ABC0E4"/><stop offset="0.83" stop-color="#ABC0E4"/><stop offset="1" stop-color="#ABC0E4"/></linearGradient><linearGradient x1="0" y1="200.151" x2="45.283" y2="200.151" gradientUnits="userSpaceOnUse" spreadMethod="reflect" id="fill2"><stop offset="0" stop-color="#CE93D8"/><stop offset="0.74" stop-color="#ABC0E4"/><stop offset="0.83" stop-color="#ABC0E4"/><stop offset="1" stop-color="#C7D5ED"/></linearGradient></defs><g clip-path="url(#clip0)" transform="translate(-400 -104)"><path d="M507.084 121.669C510.771 109.72 523.446 103.023 535.395 106.71L535.395 106.71C547.343 110.397 554.04 123.072 550.353 135.021L445.671 474.256C441.984 486.204 429.309 492.901 417.36 489.214L417.36 489.214C405.412 485.527 398.714 472.852 402.401 460.904Z" stroke="#2F528F" stroke-width="1.33333" stroke-miterlimit="8" fill="url(#fill1)" fill-rule="evenodd"/><path d="M0 22.6413C-3.18527e-15 10.1369 10.137 0 22.6415 0L22.6415 0C35.1461-3.18524e-15 45.283 10.1369 45.283 22.6413L45.283 377.661C45.283 390.165 35.1461 400.302 22.6415 400.302L22.6415 400.302C10.137 400.302 0 390.165 0 377.661Z" stroke="#2F528F" stroke-width="1.33333" stroke-miterlimit="8" fill="url(#fill2)" fill-rule="evenodd" transform="matrix(0.955539 -0.294863 -0.294863 -0.955539 618.514 495.891)"/></g></svg>