<svg width="365" height="350" viewBox="0 0 365 350" fill="none" xmlns="http://www.w3.org/2000/svg">
<rect width="365" height="350" fill="#E5E5E5"/>
<g id="undraw_Raining_re_4b55 (1) 1" clip-path="url(#clip0)">
<g id="umbrella">
<path id="Vector" d="M221.685 65.4325C221.685 65.4325 224.78 58.2077 219.779 56.3292C214.777 54.4508 215.137 62.0176 215.137 62.0176L221.221 66.0013" fill="#3F3D56"/>
<path id="Vector_2" d="M116.594 86.6897L106.228 95.9613C106.228 95.9613 261.736 153.624 279.472 165.063L277.722 148.905L263.029 129.161L234.569 109.129L188.628 93.3604L138.563 73.4949L116.594 86.6897Z" fill="#A455C9"/>
<path id="Vector_3" d="M195.793 109.747L160.611 206.629C160.611 206.629 154.988 222.671 167.414 225.746C174.885 227.595 178.835 222.594 180.796 218.312C182.892 213.738 177.204 209.717 174.361 213.769C174.315 213.835 174.269 213.902 174.222 213.971C174.153 214.073 166.699 220.455 166.703 211.721C166.721 209.707 167.1 207.717 167.817 205.866L202.392 114.243L195.793 109.747Z" fill="#3F3D56"/>
<path id="Vector_4" d="M218.114 61.3205C218.114 61.3205 208.214 59.7256 202.646 56.254C202.646 56.254 141.545 41.905 106.266 95.4343C106.266 95.4343 272.347 137.852 279.51 164.536C279.51 164.536 289.934 115.155 234.716 69.5733C234.716 69.5733 221.208 64.3933 218.114 61.3205Z" fill="#3F3D56"/>
</g>
<g id="rain drops">
<path id="Vector_5" d="M193.293 53.7746C191.942 60.0136 190.237 61.4986 188.621 61.0729C187.005 60.6472 186.092 58.472 187.442 52.233C188.793 45.994 193.511 38.4794 193.511 38.4794C193.511 38.4794 194.643 47.5355 193.293 53.7746Z" fill="#5966DD" fill-opacity="0.58"/>
<path id="Vector_6" d="M29.729 215.271C28.905 219.078 27.8642 219.984 26.8783 219.724C25.8925 219.464 25.335 218.137 26.159 214.33C26.983 210.523 29.8622 205.938 29.8622 205.938C29.8622 205.938 30.553 211.464 29.729 215.271Z" fill="#5966DD" fill-opacity="0.58"/>
<path id="Vector_7" d="M199.204 9.33302C198.38 13.14 197.339 14.0461 196.353 13.7864C195.367 13.5267 194.81 12.1994 195.634 8.39235C196.458 4.58534 199.337 0 199.337 0C199.337 0 200.028 5.52603 199.204 9.33302Z" fill="#5966DD" fill-opacity="0.58"/>
<path id="Vector_8" d="M173.444 27.7826C172.62 31.5896 171.579 32.4957 170.593 32.236C169.607 31.9763 169.05 30.649 169.874 26.842C170.698 23.0349 173.577 18.4496 173.577 18.4496C173.577 18.4496 174.268 23.9756 173.444 27.7826Z" fill="#5966DD" fill-opacity="0.58"/>
<path id="Vector_9" d="M121.887 249.241C120.537 255.48 118.831 256.965 117.216 256.539C115.6 256.113 114.686 253.938 116.037 247.699C117.387 241.46 122.106 233.946 122.106 233.946C122.106 233.946 123.238 243.002 121.887 249.241Z" fill="#5966DD" fill-opacity="0.58"/>
<path id="Vector_10" d="M127.798 204.799C126.974 208.606 125.934 209.512 124.948 209.253C123.962 208.993 123.404 207.666 124.228 203.859C125.052 200.052 127.932 195.466 127.932 195.466C127.932 195.466 128.622 200.992 127.798 204.799Z" fill="#5966DD" fill-opacity="0.58"/>
<path id="Vector_11" d="M102.038 223.249C101.214 227.056 100.173 227.962 99.1876 227.702C98.2017 227.442 97.6442 226.115 98.4682 222.308C99.2922 218.501 102.171 213.916 102.171 213.916C102.171 213.916 102.862 219.442 102.038 223.249Z" fill="#5966DD" fill-opacity="0.58"/>
<path id="Vector_12" d="M95.2234 63.2487C93.873 69.4877 92.1672 70.9727 90.5516 70.547C88.936 70.1213 88.0224 67.9461 89.3728 61.7071C90.7231 55.4682 95.4417 47.9535 95.4417 47.9535C95.4417 47.9535 96.5738 57.0096 95.2234 63.2487Z" fill="#5966DD" fill-opacity="0.58"/>
<path id="Vector_13" d="M91.6079 171.952C90.2576 178.191 88.5518 179.676 86.9362 179.25C85.3205 178.824 84.4069 176.649 85.7573 170.41C87.1077 164.171 91.8263 156.657 91.8263 156.657C91.8263 156.657 92.9583 165.713 91.6079 171.952Z" fill="#5966DD" fill-opacity="0.58"/>
<path id="Vector_14" d="M97.5189 127.51C96.6949 131.317 95.6541 132.223 94.6682 131.964C93.6824 131.704 93.1249 130.377 93.9489 126.57C94.7729 122.763 97.6521 118.177 97.6521 118.177C97.6521 118.177 98.3429 123.703 97.5189 127.51Z" fill="#5966DD" fill-opacity="0.58"/>
<path id="Vector_15" d="M71.7588 145.96C70.9348 149.767 69.8939 150.673 68.9081 150.413C67.9223 150.154 67.3648 148.826 68.1888 145.019C69.0127 141.212 71.892 136.627 71.892 136.627C71.892 136.627 72.5828 142.153 71.7588 145.96Z" fill="#5966DD" fill-opacity="0.58"/>
<path id="Vector_16" d="M164.369 67.7364C163.019 73.9754 161.313 75.4604 159.697 75.0347C158.082 74.609 157.168 72.4339 158.518 66.1949C159.869 59.9559 164.587 52.4413 164.587 52.4413C164.587 52.4413 165.719 61.4974 164.369 67.7364Z" fill="#5966DD" fill-opacity="0.58"/>
<path id="Vector_17" d="M160.754 176.44C159.403 182.679 157.697 184.164 156.082 183.738C154.466 183.312 153.553 181.137 154.903 174.898C156.253 168.659 160.972 161.144 160.972 161.144C160.972 161.144 162.104 170.201 160.754 176.44Z" fill="#5966DD" fill-opacity="0.58"/>
<path id="Vector_18" d="M166.665 131.998C165.841 135.805 164.8 136.711 163.814 136.451C162.828 136.192 162.271 134.864 163.095 131.057C163.919 127.25 166.798 122.665 166.798 122.665C166.798 122.665 167.489 128.191 166.665 131.998Z" fill="#5966DD" fill-opacity="0.58"/>
<path id="Vector_19" d="M228.544 88.6792C227.193 94.9183 225.487 96.4032 223.872 95.9776C222.256 95.5519 221.343 93.3767 222.693 87.1377C224.043 80.8987 228.762 73.3841 228.762 73.3841C228.762 73.3841 229.894 82.4402 228.544 88.6792Z" fill="#5966DD" fill-opacity="0.58"/>
<path id="Vector_20" d="M208.694 62.6873C207.87 66.4943 206.83 67.4004 205.844 67.1407C204.858 66.881 204.3 65.5537 205.124 61.7466C205.948 57.9396 208.828 53.3543 208.828 53.3543C208.828 53.3543 209.518 58.8803 208.694 62.6873Z" fill="#5966DD" fill-opacity="0.58"/>
<path id="Vector_21" d="M260.631 59.2596C259.28 65.4986 257.575 66.9836 255.959 66.5579C254.343 66.1322 253.43 63.957 254.78 57.7181C256.13 51.4791 260.849 43.9644 260.849 43.9644C260.849 43.9644 261.981 53.0205 260.631 59.2596Z" fill="#5966DD" fill-opacity="0.58"/>
<path id="Vector_22" d="M257.015 167.963C255.665 174.202 253.959 175.687 252.344 175.261C250.728 174.835 249.814 172.66 251.165 166.421C252.515 160.182 257.234 152.668 257.234 152.668C257.234 152.668 258.366 161.724 257.015 167.963Z" fill="#5966DD" fill-opacity="0.58"/>
<path id="Vector_23" d="M262.926 123.521C262.102 127.328 261.061 128.234 260.076 127.975C259.09 127.715 258.532 126.388 259.356 122.581C260.18 118.774 263.06 114.188 263.06 114.188C263.06 114.188 263.75 119.714 262.926 123.521Z" fill="#5966DD" fill-opacity="0.58"/>
<path id="Vector_24" d="M324.805 80.2024C323.455 86.4414 321.749 87.9264 320.133 87.5007C318.518 87.075 317.604 84.8998 318.955 78.6609C320.305 72.4219 325.024 64.9073 325.024 64.9073C325.024 64.9073 326.156 73.9633 324.805 80.2024Z" fill="#5966DD" fill-opacity="0.58"/>
<path id="Vector_25" d="M304.956 54.2105C304.132 58.0175 303.091 58.9236 302.105 58.6638C301.12 58.4041 300.562 57.0768 301.386 53.2698C302.21 49.4628 305.089 44.8774 305.089 44.8774C305.089 44.8774 305.78 50.4035 304.956 54.2105Z" fill="#5966DD" fill-opacity="0.58"/>
<path id="Vector_26" d="M298.141 130.565C296.791 136.804 295.085 138.289 293.469 137.863C291.854 137.437 290.94 135.262 292.291 129.023C293.641 122.784 298.359 115.27 298.359 115.27C298.359 115.27 299.492 124.326 298.141 130.565Z" fill="#5966DD" fill-opacity="0.58"/>
<path id="Vector_27" d="M294.526 239.268C293.175 245.507 291.47 246.992 289.854 246.566C288.238 246.141 287.325 243.965 288.675 237.726C290.025 231.487 294.744 223.973 294.744 223.973C294.744 223.973 295.876 233.029 294.526 239.268Z" fill="#5966DD" fill-opacity="0.58"/>
<path id="Vector_28" d="M300.437 194.826C299.613 198.633 298.572 199.54 297.586 199.28C296.6 199.02 296.043 197.693 296.867 193.886C297.691 190.079 300.57 185.493 300.57 185.493C300.57 185.493 301.261 191.019 300.437 194.826Z" fill="#5966DD" fill-opacity="0.58"/>
<path id="Vector_29" d="M362.316 151.508C360.965 157.747 359.259 159.232 357.644 158.806C356.028 158.38 355.115 156.205 356.465 149.966C357.815 143.727 362.534 136.213 362.534 136.213C362.534 136.213 363.666 145.269 362.316 151.508Z" fill="#5966DD" fill-opacity="0.58"/>
<path id="Vector_30" d="M342.466 125.516C341.642 129.323 340.602 130.229 339.616 129.969C338.63 129.709 338.072 128.382 338.896 124.575C339.72 120.768 342.6 116.183 342.6 116.183C342.6 116.183 343.29 121.709 342.466 125.516Z" fill="#5966DD" fill-opacity="0.58"/>
<path id="Vector_31" d="M3.96887 233.72C3.14489 237.527 2.10402 238.433 1.11818 238.174C0.132352 237.914 -0.42513 236.587 0.398847 232.78C1.22282 228.973 4.10208 224.387 4.10208 224.387C4.10208 224.387 4.79286 229.913 3.96887 233.72Z" fill="#5966DD" fill-opacity="0.58"/>
<path id="Vector_32" d="M23.818 259.712C22.4676 265.951 20.7618 267.436 19.1462 267.011C17.5306 266.585 16.617 264.41 17.9674 258.171C19.3177 251.932 24.0363 244.417 24.0363 244.417C24.0363 244.417 25.1684 253.473 23.818 259.712Z" fill="#5966DD" fill-opacity="0.58"/>
<path id="Vector_33" d="M27.4335 151.009C26.0831 157.248 24.3773 158.733 22.7617 158.307C21.1461 157.882 20.2325 155.706 21.5828 149.467C22.9332 143.228 27.6518 135.714 27.6518 135.714C27.6518 135.714 28.7839 144.77 27.4335 151.009Z" fill="#5966DD" fill-opacity="0.58"/>
</g>
<g id="person">
<path id="Vector_34" d="M217.208 349.502H210.537C209.698 349.501 208.894 349.133 208.301 348.479C207.708 347.824 207.375 346.937 207.374 346.012V284.672C207.375 283.747 207.708 282.859 208.301 282.205C208.894 281.551 209.698 281.183 210.537 281.181H217.208C218.046 281.183 218.85 281.551 219.443 282.205C220.036 282.859 220.37 283.747 220.371 284.672V346.012C220.37 346.937 220.036 347.824 219.443 348.479C218.85 349.133 218.046 349.501 217.208 349.502V349.502Z" fill="#A24FC9"/>
<path id="Vector_35" d="M203.111 349.502H196.44C195.602 349.501 194.798 349.133 194.204 348.479C193.611 347.824 193.278 346.937 193.277 346.012V284.672C193.278 283.747 193.611 282.859 194.204 282.205C194.798 281.551 195.602 281.183 196.44 281.181H203.111C203.949 281.183 204.753 281.551 205.347 282.205C205.94 282.859 206.273 283.747 206.274 284.672V346.012C206.273 346.937 205.94 347.824 205.347 348.479C204.753 349.133 203.949 349.501 203.111 349.502V349.502Z" fill="#A24FC9"/>
<path id="Vector_36" d="M211.46 213.991C224.189 213.991 234.508 202.606 234.508 188.561C234.508 174.516 224.189 163.13 211.46 163.13C198.73 163.13 188.411 174.516 188.411 188.561C188.411 202.606 198.73 213.991 211.46 213.991Z" fill="#A24FC9"/>
<path id="Vector_37" d="M192.913 199.236C191.419 199.19 189.559 199.133 188.128 197.979C187.701 197.621 187.351 197.164 187.101 196.641C186.851 196.118 186.708 195.541 186.681 194.95C186.655 194.531 186.718 194.11 186.864 193.721C187.01 193.333 187.235 192.987 187.522 192.71C188.27 192.012 189.363 191.849 190.54 192.231L189.32 182.395L190.216 182.259L191.65 193.823L190.902 193.444C190.035 193.006 188.845 192.782 188.106 193.472C187.924 193.652 187.783 193.876 187.692 194.126C187.602 194.377 187.565 194.646 187.585 194.915C187.607 195.355 187.714 195.784 187.9 196.173C188.085 196.563 188.345 196.904 188.661 197.173C189.775 198.072 191.257 198.187 192.939 198.24L192.913 199.236Z" fill="#2F2E41"/>
<path id="Vector_38" d="M200.258 183.243H195.39V184.24H200.258V183.243Z" fill="#2F2E41"/>
<path id="Vector_39" d="M213.072 163.055C213.242 160.049 213.995 157.118 215.28 154.461C216.566 151.804 218.354 149.483 220.523 147.654C222.765 145.823 225.351 144.573 228.091 143.996C230.83 143.42 233.653 143.532 236.348 144.324C239.025 145.092 241.51 146.521 243.614 148.502C245.719 150.483 247.388 152.966 248.497 155.763C249.612 158.538 250.169 161.548 250.128 164.585C250.005 167.886 249.262 171.124 247.945 174.092C246.586 177.359 244.872 180.425 243.383 183.618C241.917 186.768 240.652 190.026 239.597 193.37C237.451 200.184 236.185 207.297 235.836 214.499C235.283 225.854 236.268 242.43 247.885 246.788C250.839 247.896 254.026 248.102 257.123 248.093C260.386 248.137 263.639 247.717 266.804 246.842C272.288 245.226 277.495 241.432 279.831 235.537C280.37 234.176 280.731 232.737 280.904 231.264C280.953 230.86 280.557 230.52 280.226 230.516C280.048 230.521 279.878 230.601 279.751 230.74C279.625 230.88 279.552 231.067 279.548 231.264C278.792 237.546 274.047 242.363 268.896 244.529C265.887 245.733 262.725 246.407 259.525 246.529C256.341 246.707 253.034 246.679 249.916 245.871C247.141 245.208 244.615 243.624 242.679 241.332C240.953 239.139 239.666 236.57 238.901 233.791C237.068 227.615 236.875 220.825 237.198 214.389C237.562 207.209 238.855 200.125 241.038 193.349C242.14 189.929 243.47 186.602 245.017 183.398C246.527 180.263 248.205 177.217 249.477 173.95C250.72 170.947 251.403 167.699 251.486 164.399C251.496 161.352 250.946 158.334 249.87 155.527C248.812 152.709 247.226 150.17 245.215 148.077C243.205 145.983 240.816 144.382 238.205 143.38C235.549 142.36 232.729 141.963 229.926 142.217C227.123 142.47 224.399 143.367 221.929 144.851C219.579 146.341 217.52 148.331 215.871 150.704C214.223 153.078 213.016 155.788 212.323 158.679C211.986 160.111 211.783 161.577 211.717 163.055C211.672 164.017 213.028 164.015 213.072 163.055L213.072 163.055Z" fill="#2F2E41"/>
<path id="Vector_40" d="M217.58 163.58C217.949 160.806 219.209 158.27 221.13 156.433C223.172 154.545 225.79 153.587 228.449 153.753C229.322 153.801 229.319 152.305 228.449 152.257C225.558 152.113 222.72 153.147 220.475 155.161C218.23 157.176 216.734 160.031 216.272 163.183C216.142 164.124 217.448 164.53 217.58 163.58V163.58Z" fill="#2F2E41"/>
<path id="Vector_41" d="M217.359 165.174L210.922 162.829C210.353 162.622 209.882 162.174 209.612 161.583C209.343 160.993 209.297 160.308 209.485 159.68V159.68C209.673 159.052 210.079 158.532 210.614 158.235C211.15 157.938 211.77 157.887 212.339 158.094L218.776 160.439C219.345 160.647 219.817 161.095 220.086 161.686C220.356 162.276 220.401 162.961 220.214 163.589V163.589C220.026 164.217 219.619 164.736 219.084 165.034C218.549 165.331 217.928 165.382 217.359 165.174V165.174Z" fill="#2F2E41"/>
<path id="Vector_42" d="M227.793 306.834H185.406C184.627 306.833 183.881 306.491 183.33 305.884C182.779 305.276 182.469 304.452 182.469 303.593V296.233C182.469 295.374 182.779 294.55 183.33 293.943C183.881 293.335 184.627 292.993 185.406 292.992H227.793C228.571 292.993 229.318 293.335 229.869 293.943C230.42 294.55 230.729 295.374 230.73 296.233V303.593C230.729 304.452 230.42 305.276 229.869 305.884C229.318 306.491 228.571 306.833 227.793 306.834Z" fill="#CCCCCC"/>
<path id="Vector_43" d="M236.823 295.695C236.801 295.695 236.78 295.695 236.759 295.694L177.487 294.317C177.051 294.307 176.623 294.19 176.233 293.974C175.843 293.759 175.502 293.45 175.233 293.071C174.965 292.691 174.777 292.251 174.682 291.781C174.587 291.311 174.588 290.824 174.685 290.355L189.117 220.645C189.262 219.928 189.626 219.288 190.146 218.829C190.667 218.371 191.314 218.123 191.98 218.126H201.641C208.445 218.152 215.036 220.748 220.316 225.482C225.597 230.216 229.249 236.802 230.665 244.145L239.696 291.79C239.786 292.262 239.779 292.749 239.676 293.217C239.573 293.686 239.377 294.123 239.101 294.497C238.826 294.871 238.479 295.172 238.085 295.38C237.69 295.587 237.259 295.695 236.823 295.695V295.695Z" fill="#2F2E41"/>
<path id="Vector_44" d="M198.743 256.257C197.97 256.258 197.228 255.923 196.679 255.323L157.123 212.221C156.848 211.922 156.63 211.566 156.48 211.174C156.33 210.782 156.252 210.361 156.25 209.935C156.247 209.51 156.321 209.088 156.466 208.694C156.612 208.299 156.826 207.941 157.097 207.638L161.784 202.401C162.332 201.789 163.077 201.443 163.856 201.438C164.635 201.432 165.384 201.769 165.938 202.372L205.494 245.474C206.048 246.079 206.361 246.901 206.366 247.76C206.371 248.62 206.067 249.446 205.52 250.058L200.833 255.295C200.56 255.6 200.234 255.842 199.876 256.008C199.517 256.173 199.132 256.257 198.743 256.257V256.257Z" fill="#A24FC9"/>
<path id="Vector_45" d="M196.914 257.562L179.52 238.837C178.978 238.253 178.66 237.461 178.633 236.625C178.606 235.789 178.871 234.974 179.374 234.348L186.695 225.244C186.984 224.884 187.342 224.6 187.743 224.411C188.144 224.222 188.577 224.134 189.013 224.152C189.448 224.17 189.875 224.294 190.261 224.516C190.648 224.738 190.985 225.051 191.249 225.434L209.86 246.362C210.381 247.004 210.651 247.848 210.61 248.709C210.569 249.57 210.221 250.378 209.641 250.956L201.082 257.806C200.5 258.383 199.734 258.681 198.952 258.635C198.171 258.59 197.438 258.204 196.914 257.562V257.562Z" fill="#2F2E41"/>
</g>
<path id="Road" d="M364.462 350H30.8027C30.7319 350 30.6618 349.985 30.5963 349.955C30.5308 349.926 30.4713 349.882 30.4212 349.827C30.3711 349.772 30.3313 349.706 30.3041 349.634C30.277 349.562 30.263 349.484 30.263 349.406C30.263 349.328 30.277 349.251 30.3041 349.179C30.3313 349.107 30.3711 349.041 30.4212 348.986C30.4713 348.931 30.5308 348.887 30.5963 348.857C30.6618 348.828 30.7319 348.812 30.8027 348.813H364.462C364.533 348.812 364.603 348.828 364.668 348.857C364.734 348.887 364.793 348.931 364.843 348.986C364.893 349.041 364.933 349.107 364.96 349.179C364.988 349.251 365.001 349.328 365.001 349.406C365.001 349.484 364.988 349.562 364.96 349.634C364.933 349.706 364.893 349.772 364.843 349.827C364.793 349.882 364.734 349.926 364.668 349.955C364.603 349.985 364.533 350 364.462 350V350Z" fill="#3F3D56"/>
</g>
<defs>
<clipPath id="clip0">
<rect width="365" height="350" fill="white"/>
</clipPath>
</defs>
</svg>
