<svg width="365" height="350" viewBox="0 0 365 350" fill="none" xmlns="http://www.w3.org/2000/svg">
<g id="raindrops" clip-path="url(#clip0)">
<g id="raindrops_row3">
<path id="Vector" d="M193.293 53.7746C191.942 60.0136 190.237 61.4986 188.621 61.0729C187.005 60.6472 186.092 58.472 187.442 52.233C188.793 45.994 193.511 38.4794 193.511 38.4794C193.511 38.4794 194.643 47.5355 193.293 53.7746Z" fill="#5966DD" fill-opacity="0.58"/>
<path id="Vector_2" d="M199.204 9.33302C198.38 13.14 197.339 14.0461 196.353 13.7864C195.367 13.5267 194.81 12.1994 195.634 8.39235C196.458 4.58534 199.337 0 199.337 0C199.337 0 200.028 5.52603 199.204 9.33302Z" fill="#5966DD" fill-opacity="0.58"/>
<path id="Vector_3" d="M173.444 27.7826C172.62 31.5896 171.579 32.4957 170.593 32.236C169.607 31.9763 169.05 30.649 169.874 26.842C170.698 23.0349 173.577 18.4496 173.577 18.4496C173.577 18.4496 174.268 23.9756 173.444 27.7826Z" fill="#5966DD" fill-opacity="0.58"/>
<path id="Vector_4" d="M95.2234 63.2487C93.873 69.4877 92.1672 70.9727 90.5516 70.547C88.936 70.1213 88.0224 67.9461 89.3728 61.7071C90.7231 55.4682 95.4417 47.9535 95.4417 47.9535C95.4417 47.9535 96.5738 57.0096 95.2234 63.2487Z" fill="#5966DD" fill-opacity="0.58"/>
<path id="Vector_5" d="M164.369 67.7364C163.019 73.9754 161.313 75.4604 159.697 75.0347C158.082 74.609 157.168 72.4339 158.518 66.1949C159.869 59.9559 164.587 52.4413 164.587 52.4413C164.587 52.4413 165.719 61.4974 164.369 67.7364Z" fill="#5966DD" fill-opacity="0.58"/>
<path id="Vector_6" d="M228.544 88.6792C227.193 94.9183 225.487 96.4032 223.872 95.9776C222.256 95.5519 221.343 93.3767 222.693 87.1377C224.043 80.8987 228.762 73.3841 228.762 73.3841C228.762 73.3841 229.894 82.4402 228.544 88.6792Z" fill="#5966DD" fill-opacity="0.58"/>
<path id="Vector_7" d="M208.694 62.6873C207.87 66.4943 206.83 67.4004 205.844 67.1407C204.858 66.881 204.3 65.5537 205.124 61.7466C205.948 57.9396 208.828 53.3543 208.828 53.3543C208.828 53.3543 209.518 58.8803 208.694 62.6873Z" fill="#5966DD" fill-opacity="0.58"/>
<path id="Vector_8" d="M260.631 59.2596C259.28 65.4986 257.575 66.9836 255.959 66.5579C254.343 66.1322 253.43 63.957 254.78 57.7181C256.13 51.4791 260.849 43.9644 260.849 43.9644C260.849 43.9644 261.981 53.0205 260.631 59.2596Z" fill="#5966DD" fill-opacity="0.58"/>
<path id="Vector_9" d="M324.805 80.2024C323.455 86.4414 321.749 87.9264 320.133 87.5007C318.518 87.075 317.604 84.8998 318.955 78.6609C320.305 72.4219 325.024 64.9073 325.024 64.9073C325.024 64.9073 326.156 73.9633 324.805 80.2024Z" fill="#5966DD" fill-opacity="0.58"/>
<path id="Vector_10" d="M304.956 54.2105C304.132 58.0175 303.091 58.9236 302.105 58.6638C301.12 58.4041 300.562 57.0768 301.386 53.2698C302.21 49.4628 305.089 44.8774 305.089 44.8774C305.089 44.8774 305.78 50.4035 304.956 54.2105Z" fill="#5966DD" fill-opacity="0.58"/>
</g>
<g id="raindrops_row1">
<path id="Vector_11" d="M29.729 215.271C28.905 219.078 27.8642 219.984 26.8783 219.724C25.8925 219.464 25.335 218.137 26.159 214.33C26.983 210.523 29.8622 205.938 29.8622 205.938C29.8622 205.938 30.553 211.464 29.729 215.271Z" fill="#5966DD" fill-opacity="0.58"/>
<path id="Vector_12" d="M121.887 249.241C120.537 255.48 118.831 256.965 117.216 256.539C115.6 256.113 114.686 253.938 116.037 247.699C117.387 241.46 122.106 233.946 122.106 233.946C122.106 233.946 123.238 243.002 121.887 249.241Z" fill="#5966DD" fill-opacity="0.58"/>
<path id="Vector_13" d="M102.038 223.249C101.214 227.056 100.173 227.962 99.1876 227.702C98.2017 227.442 97.6442 226.115 98.4682 222.308C99.2922 218.501 102.171 213.916 102.171 213.916C102.171 213.916 102.862 219.442 102.038 223.249Z" fill="#5966DD" fill-opacity="0.58"/>
<path id="Vector_14" d="M300.437 194.826C299.613 198.633 298.572 199.54 297.586 199.28C296.6 199.02 296.043 197.693 296.867 193.886C297.691 190.079 300.57 185.493 300.57 185.493C300.57 185.493 301.261 191.019 300.437 194.826Z" fill="#5966DD" fill-opacity="0.58"/>
<path id="Vector_15" d="M294.526 239.268C293.175 245.507 291.47 246.992 289.854 246.566C288.238 246.141 287.325 243.965 288.675 237.726C290.025 231.487 294.744 223.973 294.744 223.973C294.744 223.973 295.876 233.029 294.526 239.268Z" fill="#5966DD" fill-opacity="0.58"/>
<path id="Vector_16" d="M3.96887 233.72C3.14489 237.527 2.10402 238.433 1.11818 238.174C0.132352 237.914 -0.42513 236.587 0.398847 232.78C1.22282 228.973 4.10208 224.387 4.10208 224.387C4.10208 224.387 4.79286 229.913 3.96887 233.72Z" fill="#5966DD" fill-opacity="0.58"/>
<path id="Vector_17" d="M23.818 259.712C22.4676 265.951 20.7618 267.436 19.1462 267.011C17.5306 266.585 16.617 264.41 17.9674 258.171C19.3177 251.932 24.0363 244.417 24.0363 244.417C24.0363 244.417 25.1684 253.473 23.818 259.712Z" fill="#5966DD" fill-opacity="0.58"/>
<path id="Vector_18" d="M127.798 204.799C126.974 208.606 125.934 209.512 124.948 209.253C123.962 208.993 123.404 207.666 124.228 203.859C125.052 200.052 127.932 195.466 127.932 195.466C127.932 195.466 128.622 200.992 127.798 204.799Z" fill="#5966DD" fill-opacity="0.58"/>
</g>
<g id="raindrops_row5">
<path id="Vector_19" d="M232.824 7.67921C231.474 13.9182 229.768 15.4032 228.153 14.9775C226.537 14.5519 225.623 12.3767 226.974 6.13769C228.324 -0.101299 233.043 -7.61591 233.043 -7.61591C233.043 -7.61591 234.175 1.44018 232.824 7.67921Z" fill="#5966DD" fill-opacity="0.58"/>
<path id="Vector_20" d="M329.086 -0.797626C327.736 5.44141 326.03 6.9264 324.414 6.50071C322.799 6.07502 321.885 3.89984 323.235 -2.33915C324.586 -8.57814 329.304 -16.0927 329.304 -16.0927C329.304 -16.0927 330.436 -7.03666 329.086 -0.797626Z" fill="#5966DD" fill-opacity="0.58"/>
<g id="raindrops_row4">
<path id="Vector_21" d="M76.6787 5.76363C75.3284 12.0027 73.6226 13.4876 72.007 13.062C70.3913 12.6363 69.4777 10.4611 70.8281 4.22211C72.1785 -2.01688 76.8971 -9.53149 76.8971 -9.53149C76.8971 -9.53149 78.0291 -0.475407 76.6787 5.76363Z" fill="#5966DD" fill-opacity="0.58"/>
<path id="Vector_22" d="M145.824 10.2514C144.474 16.4904 142.768 17.9754 141.153 17.5497C139.537 17.124 138.623 14.9489 139.974 8.70988C141.324 2.47089 146.043 -5.04373 146.043 -5.04373C146.043 -5.04373 147.175 4.01236 145.824 10.2514Z" fill="#5966DD" fill-opacity="0.58"/>
<path id="Vector_23" d="M242.086 1.77456C240.736 8.0136 239.03 9.49859 237.414 9.0729C235.799 8.64721 234.885 6.47203 236.236 0.233041C237.586 -6.00595 242.304 -13.5206 242.304 -13.5206C242.304 -13.5206 243.437 -4.46448 242.086 1.77456Z" fill="#5966DD" fill-opacity="0.58"/>
</g>
</g>
<g id="raindrops_row2">
<path id="Vector_24" d="M91.6079 171.952C90.2576 178.191 88.5518 179.676 86.9362 179.25C85.3205 178.824 84.4069 176.649 85.7573 170.41C87.1077 164.171 91.8263 156.657 91.8263 156.657C91.8263 156.657 92.9583 165.713 91.6079 171.952Z" fill="#5966DD" fill-opacity="0.58"/>
<path id="Vector_25" d="M97.5189 127.51C96.6949 131.317 95.6541 132.223 94.6682 131.964C93.6824 131.704 93.1249 130.377 93.9489 126.57C94.7729 122.763 97.6521 118.177 97.6521 118.177C97.6521 118.177 98.3429 123.703 97.5189 127.51Z" fill="#5966DD" fill-opacity="0.58"/>
<path id="Vector_26" d="M71.7588 145.96C70.9348 149.767 69.8939 150.673 68.9081 150.413C67.9223 150.154 67.3648 148.826 68.1888 145.019C69.0127 141.212 71.892 136.627 71.892 136.627C71.892 136.627 72.5828 142.153 71.7588 145.96Z" fill="#5966DD" fill-opacity="0.58"/>
<path id="Vector_27" d="M160.754 176.44C159.403 182.679 157.697 184.164 156.082 183.738C154.466 183.312 153.553 181.137 154.903 174.898C156.253 168.659 160.972 161.144 160.972 161.144C160.972 161.144 162.104 170.201 160.754 176.44Z" fill="#5966DD" fill-opacity="0.58"/>
<path id="Vector_28" d="M166.665 131.998C165.841 135.805 164.8 136.711 163.814 136.451C162.828 136.192 162.271 134.864 163.095 131.057C163.919 127.25 166.798 122.665 166.798 122.665C166.798 122.665 167.489 128.191 166.665 131.998Z" fill="#5966DD" fill-opacity="0.58"/>
<path id="Vector_29" d="M257.015 167.963C255.665 174.202 253.959 175.687 252.344 175.261C250.728 174.835 249.814 172.66 251.165 166.421C252.515 160.182 257.234 152.668 257.234 152.668C257.234 152.668 258.366 161.724 257.015 167.963Z" fill="#5966DD" fill-opacity="0.58"/>
<path id="Vector_30" d="M298.141 130.565C296.791 136.804 295.085 138.289 293.469 137.863C291.854 137.437 290.94 135.262 292.291 129.023C293.641 122.784 298.359 115.27 298.359 115.27C298.359 115.27 299.492 124.326 298.141 130.565Z" fill="#5966DD" fill-opacity="0.58"/>
<path id="Vector_31" d="M362.316 151.508C360.965 157.747 359.259 159.232 357.644 158.806C356.028 158.38 355.115 156.205 356.465 149.966C357.815 143.727 362.534 136.213 362.534 136.213C362.534 136.213 363.666 145.269 362.316 151.508Z" fill="#5966DD" fill-opacity="0.58"/>
<path id="Vector_32" d="M342.466 125.516C341.642 129.323 340.602 130.229 339.616 129.969C338.63 129.709 338.072 128.382 338.896 124.575C339.72 120.768 342.6 116.183 342.6 116.183C342.6 116.183 343.29 121.709 342.466 125.516Z" fill="#5966DD" fill-opacity="0.58"/>
<path id="Vector_33" d="M27.4335 151.009C26.0831 157.248 24.3773 158.733 22.7617 158.307C21.1461 157.882 20.2325 155.706 21.5828 149.467C22.9332 143.228 27.6518 135.714 27.6518 135.714C27.6518 135.714 28.7839 144.77 27.4335 151.009Z" fill="#5966DD" fill-opacity="0.58"/>
<path id="Vector_34" d="M262.926 123.521C262.102 127.328 261.061 128.234 260.076 127.975C259.09 127.715 258.532 126.388 259.356 122.581C260.18 118.774 263.06 114.188 263.06 114.188C263.06 114.188 263.75 119.714 262.926 123.521Z" fill="#5966DD" fill-opacity="0.58"/>
</g>
</g>
<defs>
<clipPath id="clip0">
<rect width="365" height="350" fill="white"/>
</clipPath>
</defs>
</svg>
